<svg id="Layer_2" data-name="Layer 2" xmlns="http://www.w3.org/2000/svg" viewBox="0 0 99.89 106.05"><defs><style>.cls-1{fill:#444;}</style></defs><title>external_link</title><path class="cls-1" d="M542.72,1523.35l55.81,39.08a2.5,2.5,0,0,0,3.48-.61L641.09,1506a2.5,2.5,0,0,0-.61-3.48l-17-11.87a2.5,2.5,0,1,0-2.87,4.1l14.91,10.44-36.21,51.71-51.71-36.21L583.85,1469l14.48,10.14a2.5,2.5,0,1,0,2.87-4.1l-16.53-11.58a2.5,2.5,0,0,0-3.48.61l-39.08,55.81A2.5,2.5,0,0,0,542.72,1523.35Z" transform="translate(-541.66 -1456.84)"/><path class="cls-1" d="M615.38,1464.25l8-1.41-33,47.14a2.5,2.5,0,1,0,4.1,2.87l33-47.14,1.41,8a2.5,2.5,0,1,0,4.92-.87l-2.46-13.92a2.51,2.51,0,0,0-.13-0.48c0-.07-0.06-0.13-0.09-0.19A2.47,2.47,0,0,0,631,1458a2.42,2.42,0,0,0-.16-0.21c0-.06-0.09-0.12-0.14-0.18a2.46,2.46,0,0,0-.8-0.56l-0.2-.07-0.26-.08-0.25,0-0.23,0a2.52,2.52,0,0,0-.44,0h0l-13.93,2.46A2.5,2.5,0,1,0,615.38,1464.25Z" transform="translate(-541.66 -1456.84)"/></svg>